<svg xmlns="http://www.w3.org/2000/svg" width="190" height="190"><path fill="#95B84F" d="M189.76 94.334c0 52.057-42.203 94.26-94.262 94.26-52.063 0-94.258-42.203-94.258-94.26 0-52.062 42.194-94.26 94.258-94.26 52.059 0 94.262 42.198 94.262 94.26z"/><path fill="#39653B" d="M48.267 120.953l16.317 16.315 49.488 49.489c39.113-7.819 69.484-39.839 74.836-79.781l-47.012-47.013"/><path fill="#fff" d="M72.187 143.971c-.697 0-1.394-.266-1.925-.797l-44.686-44.685c-1.354-1.352-3.281-4.442-1.007-9.934 3.059-7.377 12.918-16.388 20.069-16.388 2.057 0 3.854.712 5.2 2.059l22.347 22.344 46.842-46.842c1.348-1.345 3.143-2.058 5.204-2.058 7.15 0 17.011 9.011 20.065 16.388 2.276 5.492.347 8.581-1.008 9.933l-69.179 69.183c-.531.531-1.227.797-1.922.797z"/></svg>