<?xml version="1.0" encoding="utf-8"?>
<!-- Generator: Adobe Illustrator 19.2.1, SVG Export Plug-In . SVG Version: 6.00 Build 0)  -->
<svg version="1.1" xmlns="http://www.w3.org/2000/svg" xmlns:xlink="http://www.w3.org/1999/xlink" x="0px" y="0px"
	 viewBox="0 0 667.1 225" style="enable-background:new 0 0 667.1 225;" xml:space="preserve">
<style type="text/css">
	.st0{fill:#623180;}
	.st1{display:none;}
	.st2{display:inline;}
	.st3{fill:#FFCF14;}
</style>
<g id="Layer_1">
	<path class="st0" d="M312.5,305.6h1v0.5c0,0.9,0.6,1.5,1.5,1.5"/>
	<path class="st0" d="M285.9,305.6l3.6,12l1.1,3.5c0.3,0.9,0.9,1.5,1.9,1.5h24.3h12.1h40.4c21.1,0,34.9-9.3,34.9-28.9
		c0-1.2-0.1-2.3-0.2-3.4l19.6,19.5c7.1,9.7,18.9,14.6,32.5,14.6c17.7,0,32.3-8.3,37.6-24.6c1.2-3.7,1.9-7,2.4-10.9
		c0.5,0.4,1,0.8,1.5,1.2l20,20c6.9,9.5,18.2,14.3,32.6,14.3c23.4,0,39.2-13.4,39.8-39.1c0.2,0.2,0.4,0.3,0.6,0.3l37.4,37h23
		c0.3,0,0.6,0,0.7-0.1c0.4-0.3,0.6-0.4,0.7-0.9v-0.4v-74.9v-0.4c0.1-0.1,0.1-0.3,0.3-0.3c0.1-0.1,0.3-0.1,0.6-0.1H678h0.3
		c0.3,0,0.6-0.1,0.7-0.3c0.3-0.3,0.4-0.7,0.4-1.2v-20L461,5.3h-77h-0.4c-0.6,0.1-1,0.7-1,1.5v8.9L371.6,5.3h-23
		c-0.9,0-1.5,0.6-1.5,1.5v28.5l-29.3-30h-23c-0.9,0-1.5,0.6-1.5,1.5v31.6l-28.3-27c-6.9-5.2-15.9-7.8-25.8-7.8
		c-17.7,0-32.3,8.3-37.6,24.6c-0.6,2.1-1.2,4.1-1.6,6.1l-23.4-22.3c-5.4-4.2-13.3-6.6-23.8-6.6h-40.8c-0.9,0-1.5,0.6-1.5,1.5v43.4
		L65.1,5.3H41c-1,0-1.6,0.6-1.9,1.5L4.5,104.1l218,218.5h24.2c1,0,1.6-0.6,1.9-1.5l4.7-15.5h23.2L285.9,305.6z"/>
</g>
<g id="Layer_3" class="st1">
	<g class="st2">
		<path class="st0" d="M707.4,311.9c0,0,0.4,0.5,0.8,0.8c7.6,7.5,24.4,14.5,41,14.5c27,0,41.4-13.6,41.6-32.3c0.3,0.3,0.7,0.6,1,1
			c1,1.1,2,2.2,3.1,3.1c1,1.1,2,2.2,3.1,3.1c1,1.1,2,2.2,3.1,3.1c1,1.1,2,2.2,3.1,3.1c1,1.1,2,2.2,3.1,3.1c1,1.2,2.2,2.3,3.4,3.3
			c7.3,8.2,18.4,12.3,31,12.3c16.5,0,30.4-7.1,36.7-21.2c0.4,0.1,0.8,0.1,1.2,0.1h1v2.2c0,0.9,1.3,0.8,2.2,0.8h0.8v2.4
			c0,0.9,1.4,0.6,2.3,0.6h1.7v2.5c0,0.9,0.5,1.5,1.4,1.5h1.6v1.6c0,0.9,0.6,1.4,1.5,1.4h1.5v1.7c0,0.9,0.8,1.3,1.7,1.3h1.3v1.9
			c0,0.9,0.9,1.1,1.8,1.1h41c16.4,0,28.5-5.5,33.2-17v0.2c0,0.9,1.1,0.8,2,0.8h1v2.4c0,0.9,1.2,0.6,2.1,0.6h1.9v2.5
			c0,0.9,0.3,1.5,1.2,1.5h1.8v1.6c0,0.9,0.4,1.4,1.3,1.4h1.7v1.7c0,0.9,0.6,1.3,1.5,1.3h1.5v1.9c0,0.9,0.7,1.1,1.6,1.1h23.3
			c0.9,0,1.1-0.2,1.1-1.1V297c0.2,0,0.3,0,0.5,0h0.2l0.7,1.6c0.4,1,0.9,1.4,2.2,1.4h0.2l0.7,1.6c0.4,1,0.9,1.4,2.2,1.4h0.2l0.7,1.6
			c0.4,1,0.9,1.4,2.2,1.4h0.2l0.7,1.6c0.4,1,0.9,1.4,2.2,1.4h0.2l0.7,1.6c0.4,1,0.8,1.3,2,1.4l1.2,2.6c0.4,1,0.9,1.4,2.2,1.4h0.2
			l0.7,1.6c0.4,1,0.9,1.4,2.2,1.4h0.2l0.7,1.6c0.4,1,0.9,1.4,2.2,1.4h0.2l0.7,1.6c0.4,1,0.9,1.4,2.2,1.4h25.9c1,0,1.5-0.7,1-1.6
			l-11.2-23.4c0.1,0,0.2,0,0.4,0h1.4v2c0,0.9,0.9,1,1.8,1h1.2v2.1c0,0.9,1,0.9,1.9,0.9h1.1v2.2c0,0.9,1.1,0.8,2,0.8h1v2.4
			c0,0.9,1.2,0.6,2.1,0.6h1.9v2.5c0,0.9,0.4,1.5,1.3,1.5h1.7v1.6c0,0.9,0.5,1.4,1.4,1.4h1.6v1.7c0,0.9,0.6,1.3,1.5,1.3h1.5v1.9
			c0,0.9,0.7,1.1,1.6,1.1h66.5c0.9,0,1.8-0.2,1.8-1.1v-19.3c0-0.9-0.9-1.6-1.8-1.6h-1.2v-1.5c0-0.9-1.1-1.5-2-1.5h-1v-1.7
			c0-0.9-1.2-1.3-2.1-1.3h-0.9v-1.8c0-0.9-1.3-1.2-2.2-1.2h-1.8v-1.9c0-0.9-0.4-2.1-1.3-2.1h-1.7v-1.1c0-0.9-0.6-1.9-1.5-1.9h-1.5
			v-1.2c0-0.3-0.1-0.6-0.2-0.8h10c0.9,0,1.2-0.6,1.2-1.5v-18.8c0-0.9-0.3-1.7-1.2-1.7h-1.8v-1.5c0-0.9-0.4-1.5-1.3-1.5h-1.7v-1.6
			c0-0.9-0.5-1.4-1.4-1.4h-1.6v-1.7c0-0.9-0.6-1.3-1.5-1.3h-2.5v-1.8c0-0.9,0.2-2.2-0.7-2.2h-2.3v-1c0-0.9,0.1-2-0.8-2h-2.2v-1h25.2
			c0.9,0,1.8-0.6,1.8-1.5V225L930.6,3.1c0-0.9-0.9-1.1-1.8-1.1h-66.5c-0.9,0-1.6,0.3-1.6,1.2v32c-0.9-1.1-2-2.1-3.1-3
			c-0.9-1.1-2-2.1-3.1-3c-0.9-1.1-2-2.1-3.1-3c-0.4-0.4-0.8-0.9-1.2-1.3c-1.5-2.1-3.2-4-5.2-5.7c-0.9-1.1-2-2.1-3.1-3
			c-0.9-1.1-2-2.1-3.1-3C832.5,6.2,822.6,2,809.6,2h-41.4c-0.9,0-1.6,0.3-1.6,1.2v29.9c-0.7-0.7-1.4-1.4-2.2-2.1
			c-0.9-1.1-1.9-2.1-3-3c-0.9-1.1-1.9-2.1-3-3c-0.8-0.9-1.6-1.8-2.5-2.6c-1.2-1.7-2.6-3.2-4.2-4.5c-0.9-1.1-1.9-2.1-3-3
			c-0.9-1.1-1.9-2.1-3-3c-5.3-6.3-14.4-10-27.6-10h-41.4c-0.9,0-1.8,0.3-1.8,1.2V36c-0.6-0.6-1.2-1.2-1.8-1.7c-1-1.1-2-2.2-3.1-3.1
			c-1-1.1-2-2.2-3.1-3.1c-1-1.1-2-2.2-3.1-3.1c-1-1.1-2-2.2-3.1-3.1c-1-1.1-2-2.2-3.1-3.1c-1-1.1-2-2.2-3.1-3.1
			c-1-1.1-2-2.2-3.1-3.1c-7.9-8.5-19-12.7-31.7-12.7c-17.9,0-32.7,8.4-38.1,25c-0.4,1.2-0.7,2.4-1,3.6c-0.2-0.1-0.3-0.2-0.5-0.3
			c0.1-0.5-0.2-1-0.7-1.4c-0.8-0.6-1.6-1.2-2.5-1.8c0.1-0.5-0.2-1-0.7-1.4c-0.8-0.6-1.6-1.2-2.5-1.8c0.1-0.5-0.2-1-0.7-1.4
			c-0.8-0.6-1.6-1.2-2.5-1.8c0.1-0.5-0.2-1-0.7-1.4c-0.8-0.6-1.6-1.2-2.5-1.8c0.1-0.5-0.2-1-0.7-1.4c-0.8-0.6-1.6-1.2-2.5-1.8
			c0.1-0.5-0.2-1-0.7-1.4c-8.7-6.6-21.9-10.9-36-10.9c-23,0-37.8,12.7-37.8,31.7c0,9.9,3.3,17.3,9.5,22.6c0.9,1.1,2,2.2,3.1,3.1
			c0.9,1.1,2,2.2,3.1,3.1c0.9,1.1,2,2.2,3.1,3.1c0.9,1.1,2,2.2,3.1,3.1c0.9,1.1,2,2.2,3.1,3.1c0.9,1.1,2,2.2,3.1,3.1
			c0.9,1.1,2,2.2,3.1,3.1c0.9,1.1,2,2.2,3.1,3.1c0.9,1.1,2,2.2,3.1,3.1l0.1,0.1c-10.1,0-19.6-4.8-25.7-10.2
			c-0.6-0.6-1.5-0.6-2.1,0.2L486,88.3c-0.7,0.7-0.6,1.8,0.1,2.4L707.4,311.9z M1057.4,297h0.2v0.4L1057.4,297z"/>
	</g>
</g>
<g id="Layer_2">
	<g>
		<path class="st3" d="M36.1,3.8C36.4,2.9,37,2.3,38,2.3h24c1,0,1.6,0.6,1.9,1.5l33.9,97.3c0.3,0.9-0.1,1.5-1,1.5H72.5
			c-1,0-1.6-0.6-1.9-1.5l-4.7-15.5H33.3l-4.7,15.5c-0.3,0.9-0.9,1.5-1.9,1.5H2.5c-0.9,0-1.3-0.6-1-1.5L36.1,3.8z M59.4,64.1
			l-9.3-31.3h-0.4L40,64.1H59.4z"/>
		<path class="st3" d="M107.5,3.8c0-0.9,0.6-1.5,1.5-1.5h40.8c22.4,0,32.7,10.8,32.7,26.7c0,10.3-4.7,17.5-12.2,21.5v0.3
			c7.4,2.8,14,11.2,14,22.9c0,19.6-13.9,28.9-34.9,28.9h-40.4c-0.9,0-1.5-0.6-1.5-1.5V3.8z M144.8,42.6c7.8,0,11.9-3.4,11.9-10.3
			c0-7.1-4-10.3-11.9-10.3h-10.5c-0.6,0-0.9,0.3-0.9,0.9v18.9c0,0.6,0.3,0.9,0.9,0.9H144.8z M134.3,83h11.8c8.1,0,12.2-4,12.2-11.4
			c0-6.9-4.1-11.2-12.2-11.2h-11.8c-0.6,0-0.9,0.3-0.9,0.9v20.8C133.4,82.7,133.7,83,134.3,83z"/>
		<path class="st3" d="M198.6,79.7c-2.4-7.7-2.9-13.6-2.9-27.3s0.6-19.6,2.9-27.3c5.3-16.4,19.9-24.6,37.6-24.6
			c17.7,0,32.3,8.3,37.6,24.6c2.5,7.7,2.9,13.6,2.9,27.3s-0.4,19.6-2.9,27.3c-5.3,16.4-19.9,24.6-37.6,24.6
			C218.5,104.4,203.9,96.1,198.6,79.7z M249,72.4c1.2-3.4,1.5-8,1.5-19.9s-0.3-16.5-1.5-19.9c-1.8-5.6-6.3-8.8-12.8-8.8
			c-6.5,0-11.1,3.2-12.8,8.8c-1.2,3.4-1.5,8-1.5,19.9s0.3,16.5,1.5,19.9c1.8,5.6,6.3,8.8,12.8,8.8C242.7,81.2,247.2,78,249,72.4z"/>
		<path class="st3" d="M290.3,63.8v-60c0-0.9,0.6-1.5,1.5-1.5h23c0.9,0,1.5,0.6,1.5,1.5v61.6c0,10,5.6,15.8,14,15.8
			c8.7,0,13.9-5.7,13.9-15.8V3.8c0-0.9,0.6-1.5,1.5-1.5h23c0.9,0,1.5,0.6,1.5,1.5v60c0,26.7-15.9,40.5-39.8,40.5
			C305.9,104.4,290.3,90.5,290.3,63.8z"/>
		<path class="st3" d="M408.1,102.6h-0.4c-0.3,0-0.4-0.1-0.7-0.4c-0.1-0.1-0.3-0.3-0.3-0.6v-0.4V26.2c0-0.4-0.3-0.7-0.7-0.9h-0.1
			h-24.6h-0.4c-0.3,0-0.4-0.1-0.6-0.3l-0.1-0.1c0,0,0-0.1-0.1-0.1c-0.1-0.3-0.1-0.6-0.1-0.9V3.8c0-0.7,0.4-1.3,1-1.5h0.4h77
			c0.4,0,0.7,0.1,1,0.4c0,0,0.1,0.1,0.1,0.3c0.1,0.1,0.3,0.4,0.3,0.7v20.1c0,0.4-0.1,0.9-0.4,1.2c-0.1,0.1-0.4,0.3-0.7,0.3H458
			h-24.6c-0.3,0-0.4,0-0.6,0.1c-0.1,0-0.1,0.1-0.3,0.3v0.4v74.9v0.4c-0.1,0.4-0.3,0.6-0.7,0.9c-0.1,0.1-0.4,0.1-0.7,0.1H408.1z"/>
	</g>
</g>
</svg>
